<?xml version="1.0" encoding="UTF-8"?>
<svg id="_レイヤー_1" data-name="レイヤー 1" xmlns="http://www.w3.org/2000/svg" viewBox="0 0 141.73 141.73">
  <defs>
    <style>
      .cls-1 {
        fill: #ec6d6e;
      }

      .cls-2 {
        fill: #400806;
      }
    </style>
  </defs>
  <rect class="cls-2" width="141.73" height="141.73" rx="28.35" ry="28.35"/>
  <path class="cls-1" d="m42.93,78.64c-6.22,2.13-6.57,2.31-7.55,2.31-2.75,0-4.44-2.22-4.44-4.35,0-1.6.89-3.2,3.02-3.82,3.38-1.07,6.31-1.95,8.97-2.84v-13.15h-7.28c-2.58,0-3.82-1.95-3.82-3.91s1.24-3.91,3.82-3.91h7.28l-.09-13.33c0-2.75,2.13-4.18,4.26-4.18s4.18,1.33,4.18,4.18v13.33h5.15c2.66,0,3.91,1.95,3.91,3.91s-1.24,3.91-3.91,3.91h-5.15v9.95c1.42-.62,2.84-1.24,4.26-2.04.53-.27,1.16-.44,1.69-.44,1.95,0,3.46,1.78,3.46,3.73,0,2.49-1.24,3.2-9.42,7.11,0,5.42-.09,9.59-.09,10.84,0,1.42.27,9.51.36,12.62v.44c0,5.69-2.93,10.66-11.19,10.66-4.26,0-8.17-.62-8.17-4.8,0-2.04,1.24-4.09,3.46-4.09.27,0,.53,0,.8.09,1.16.27,2.22.44,3.2.44,1.87,0,3.2-.8,3.29-3.82v-18.83Zm43,27.98c0,2.4-2.04,3.64-4.09,3.64s-4.09-1.24-4.09-3.73v-.09l.36-19.46c-6.4,8.97-17.06,17.95-20.88,17.95-2.31,0-3.82-1.95-3.82-4,0-1.33.71-2.84,2.31-3.73,8.79-5.06,15.01-10.66,19.99-17.95l-15.01.27h-.09c-2.4,0-3.64-1.78-3.64-3.64s1.24-3.64,3.73-3.64l17.23.09-.18-5.06c-.09-3.11,2.49-3.91,4.09-3.91,2.04,0,4.09,1.24,4.09,3.73v.18l-.18,5.06,19.63-.09c2.4,0,3.64,1.87,3.64,3.73s-1.16,3.55-3.55,3.55h-.09l-17.86-.36c6.13,7.02,13.41,12.35,20.88,16.26,1.69.89,2.4,2.31,2.4,3.73,0,2.4-1.87,4.8-4.35,4.8-4,0-15.99-11.64-20.88-17.68l.36,20.25v.09Zm-23.1-60.14c-2.84,0-4.18-1.95-4.18-3.91s1.24-3.82,3.64-3.82c11.19-.18,22.48-1.42,34.74-4.89.53-.18,1.07-.18,1.51-.18,2.58,0,4.18,2.04,4.18,4.09,0,1.51-.89,3.11-3.02,3.64-12.97,3.38-31.8,5.06-36.87,5.06Zm6.22,17.59c-1.33,0-2.66-.71-3.2-2.49-.8-2.49-1.78-4.8-3.55-6.66-.71-.71-.98-1.42-.98-2.13,0-1.78,1.87-3.29,3.91-3.29,4.26,0,8.17,8.26,8.17,10.48,0,2.4-2.22,4.09-4.35,4.09Zm13.06-2.4c-1.51,0-2.93-.89-3.29-2.84-.44-2.49-1.33-4.71-2.75-6.75-.44-.62-.62-1.24-.62-1.78,0-1.87,1.86-3.2,3.82-3.2,4,0,7.02,7.46,7.02,10.48,0,2.58-2.13,4.09-4.18,4.09Zm9.95,4.18c-2.04,0-3.91-1.51-3.91-3.47,0-.8.27-1.6.98-2.49,2.93-3.73,5.33-8.97,6.75-12.79.53-1.51,1.78-2.13,3.11-2.13,2.22,0,4.8,1.87,4.8,4.35s-5.06,10.75-8.35,14.84c-.98,1.15-2.22,1.69-3.38,1.69Z"/>
</svg>